PathFileType	4	(X/Y/Z)	Patient4_TMGait_0pt4_02_right_22.trc.trc
DataRate	CameraRate	NumFrames	NumMarkers	Units	OrigDataRate	OrigDataStartFrame	OrigNumFrames
76.923076923077	76.923076923077	6	33	mm	76.923076923077	124	       141
Frame#	Time	Sacral			L.Shoulder			Chest			R.Shoulder			Neck			R.ASIS			L.ASIS			R.Thigh.Superior			R.Thigh.Lateral			R.Thigh.Inferior			R.Patella			L.Thigh.Superior			L.Thigh.Lateral			L.Thigh.Inferior			L.Patella			L.Shank.Superior			L.Shank.Lateral			L.Shank.Inferior			R.Shank.Superior			R.Shank.Lateral			R.Shank.Inferior			R.Heel			R.Midfoot.Superior			R.Midfoot.Lateral			R.Toe			L.Heel			L.Midfoot.Lateral			L.Midfoot.Superior			L.Toe			L.Elbow			L.Wrist			R.Elbow			R.Wrist			
		X1	Y1	Z1	X2	Y2	Z2	X3	Y3	Z3	X4	Y4	Z4	X5	Y5	Z5	X6	Y6	Z6	X7	Y7	Z7	X8	Y8	Z8	X9	Y9	Z9	X10	Y10	Z10	X11	Y11	Z11	X12	Y12	Z12	X13	Y13	Z13	X14	Y14	Z14	X15	Y15	Z15	X16	Y16	Z16	X17	Y17	Z17	X18	Y18	Z18	X19	Y19	Z19	X20	Y20	Z20	X21	Y21	Z21	X22	Y22	Z22	X23	Y23	Z23	X24	Y24	Z24	X25	Y25	Z25	X26	Y26	Z26	X27	Y27	Z27	X28	Y28	Z28	X29	Y29	Z29	X30	Y30	Z30	X31	Y31	Z31	X32	Y32	Z32	X33	Y33	Z33	

124	30.469000000000	919.933762428964	1000.351750100305	449.594538693730	1115.506200138515	1426.353357682272	272.032262236281	1197.507596041861	1366.097488459815	446.753187599850	1091.997894826997	1442.340003609446	606.778298210953	1079.478829290837	1492.581275123533	424.761029602042	1139.951915791940	941.253908480283	587.867094973099	1148.815557797087	961.058110878860	312.061519698808	1205.155406113019	754.202273013238	564.941986991550	1144.548222619757	635.529511390535	631.905190651933	1234.556138717784	593.123214274314	556.749086320515	1256.556388572562	508.919729158337	570.741811023786	1154.394009638106	734.137247361192	337.227334662125	1043.202415002569	637.367816572992	267.074346143554	1104.439715553712	545.184513955603	331.148598881452	1090.157446591109	479.019264152044	338.030906121217	1058.993036382784	411.812792050452	327.361633824201	958.267184042354	306.870419904308	273.804340213047	1000.333241504200	189.692314490335	342.994036431437	1234.923220056699	419.885648361554	581.937963402829	1170.417305342180	312.224738508604	645.150850606697	1232.017900638180	220.256485331523	594.475128433274	1125.411070566439	43.948244821938	568.772685690688	1292.874090131151	103.949871879787	606.344993371452	1208.757238191698	38.751595356838	643.284799094422	1414.649463026976	58.662180554738	633.533435429748	865.356098324094	38.697959553487	387.719429865620	935.586082444880	34.981606998082	303.885531777904	1020.154216382339	95.778353627457	328.684031014697	1147.620616024414	43.066357656803	294.283796057347	1185.866145551171	1093.613538483474	131.054181285097	1433.076022580962	1015.794909976381	157.537599324927	965.665545245489	1123.954046496037	726.181029101185	981.953678734567	861.653852289880	725.724752441378	
125	30.482000000000	921.685414978445	998.934761152660	452.331156538988	1114.939992920564	1425.812027650082	275.673891021849	1197.301662037623	1366.014031836243	450.429642862012	1091.028820817290	1441.318116173990	610.452504664780	1078.507502062671	1491.699385718999	428.436268085437	1142.179773670014	940.114572581448	590.532627496828	1150.784140255336	960.743004753552	314.982468918290	1208.477142231357	752.867501402883	566.677129439622	1146.081364564274	633.855603582689	631.851726784676	1236.629557654007	592.008247279398	557.176513207489	1257.255381507260	506.694419516973	570.062118852206	1155.140751386090	732.990939342844	338.941706046716	1042.884731531595	636.959985438184	269.037212378319	1103.724874918413	544.220246695477	332.713181087842	1089.131849946945	477.663504362700	339.321864894804	1056.976167102591	410.846701602373	328.597424056872	954.864599795700	307.196286125036	275.056284995261	995.948298012427	189.176847752931	343.463663493678	1234.315688741652	417.071617825473	581.032855096715	1168.075764165065	310.350101244712	644.255042273683	1227.163719079109	217.335435036176	592.656690498099	1116.644052871541	43.306431736838	567.285510966201	1284.730781367470	101.544556878467	604.209075300527	1199.868688831207	37.954947469158	641.985775907914	1406.224589625241	55.069041882090	631.854945872385	860.022398508825	38.519232596246	387.755125250944	930.291852650710	34.823705199451	303.978003169166	1014.891023499450	95.687579265979	328.784738948196	1142.391453345108	42.933745274370	294.245428610269	1184.274353959346	1092.646504765395	134.534351407486	1431.366181539448	1013.827793700318	160.092485065176	968.373811628515	1121.195386651477	729.644526685887	989.586639926863	859.221358991545	728.645478406252	
126	30.495000000000	923.407093615231	997.632752527378	455.149080350580	1114.448400181567	1425.423586696259	279.482919179364	1197.173966773752	1365.980754484741	454.242190331100	1090.182668021463	1440.314955363823	614.307472201230	1077.639931723324	1490.935669885298	432.311159921816	1144.439222854686	939.161178498508	593.229781002926	1152.619033398651	960.474434283357	317.954763234367	1211.806566394210	751.791530456100	568.276687440526	1148.032720772736	632.648079299311	632.120665312740	1238.780109323014	591.155101499012	557.615553937151	1258.153259995361	504.778972004910	569.619284751587	1156.278702799256	731.970959768628	340.674773130985	1043.192648890584	636.392361758423	271.163810840147	1104.002696501304	543.202863349050	334.335192855657	1089.248349700790	476.050956026416	340.614117388133	1055.816590626916	409.670455737869	329.893213222743	952.046346945940	307.593367225364	276.457616899987	991.841426599264	188.622651027281	343.986794283704	1234.039734237116	414.685001360039	580.459383353212	1166.445581370072	308.863649424125	643.991715346929	1222.956021875719	214.879673551078	591.317224423994	1108.690936738482	42.883334500119	566.462959966383	1277.364998744415	99.752924422519	602.640276197567	1191.906544861405	37.457576674455	641.235934988604	1398.661720744268	52.242006200699	630.531329000575	854.693651145481	38.519599984498	387.783800642014	925.015112775934	34.721343019586	304.092877694341	1009.721588633238	95.585083492704	328.868876908452	1137.193596986555	42.717291624932	294.187536930090	1182.333088077298	1091.703193546113	138.190468847376	1429.081329076469	1010.997781675663	162.658419557718	971.590714099484	1118.273913323767	733.245567534316	998.157506634583	856.775088507489	731.899137491340	
127	30.508000000000	925.067914030731	996.486161469660	458.046076987701	1114.039110179836	1425.235098528389	283.427656970637	1197.123333312172	1366.014163853060	458.147750523161	1089.496812020483	1439.374235588294	618.308053738365	1076.896154601964	1490.333005800444	436.356158045410	1146.660925613596	938.434094534175	595.959151397160	1154.268874872505	960.274173901873	320.960854426913	1214.956928052602	750.997381330775	569.777119463428	1150.278491357105	631.911044292665	632.805677066069	1240.857867071353	590.547975794382	558.155337948370	1259.110054231053	503.210603877076	569.556284965900	1157.831123303989	731.132121378127	342.466598704446	1044.226189862493	635.668430854869	273.440072664852	1105.414007876149	542.156184376776	335.996782494066	1090.663120905902	474.197062804696	341.855623216695	1055.641957018694	408.308979421309	331.209739611394	949.927116721959	308.123090854225	277.978568993145	988.106357289461	188.104248808664	344.540063968711	1233.977108386905	412.755035231299	580.301724634200	1165.394016441649	307.749437444436	644.344547086999	1219.372657944986	212.925564151499	590.486986965797	1101.671530915530	42.648867119717	566.179806303299	1270.858809244152	98.563781243658	601.653655079462	1184.949017730364	37.205542218792	640.952436933952	1392.025431461568	50.194618348931	629.610282495153	849.404269584792	38.862935316132	387.794998500725	919.779061787733	34.762968213900	304.221762109836	1004.709068084226	95.498911497622	328.913130470340	1132.032882317705	42.406300735937	294.108585629554	1180.054814277249	1090.837281967961	142.031477333300	1426.185474215671	1007.299355119896	165.219920736331	975.309461649129	1115.275500694435	736.956058838496	1007.617613435723	854.425933491036	735.460880765192	
128	30.521000000000	926.641554700480	995.520267401491	461.032756185946	1113.700484898757	1425.278623252610	287.472292099155	1197.139395782967	1366.127829902030	462.098244277007	1088.998183782775	1438.533888901022	622.414969197262	1076.279509094347	1489.920089050051	440.536837155469	1148.786437780228	937.956758111753	598.724596327196	1155.698363753324	960.162926791156	323.984717134221	1217.769448757763	750.471249792390	571.249083037035	1152.637238778160	631.592828385901	633.951792479740	1242.714658068986	590.138303282758	558.891228351567	1259.958871226811	501.976276936915	569.966865410362	1159.807258155663	730.526235676314	344.356596932788	1046.071232308672	634.805808918223	275.838802688571	1108.072691447086	541.118128405573	337.671694724528	1093.497579535897	472.146289472311	342.987621303138	1056.565000808761	406.810161449289	332.500632428224	948.621802479148	308.864437957898	279.575668454709	984.849844208381	187.721602413351	345.090312394476	1233.955209580112	411.254476386565	580.594848053256	1164.680971521805	306.954180844682	645.227786415089	1216.273986390519	211.448145509506	590.143534408248	1095.531467774437	42.561491144348	566.288039923138	1265.139212862111	97.901205687346	601.198557192319	1178.905013320366	37.132463727266	641.024751644738	1386.223083957993	48.847710423907	629.079331140061	844.207805409644	39.754538488645	387.776094634304	914.618613160947	35.070370599287	304.351955567545	999.931505923303	95.473754052713	328.891513353810	1126.914569502623	41.997081657729	294.009925340713	1177.453063659737	1090.096090492564	146.061230967975	1422.627263884644	1002.735200612717	167.767066355456	979.521620826180	1112.282988800863	740.757992133591	1017.936112354027	852.285857488529	739.299107215461	
129	30.534000000000	928.103479738750	994.744672436767	464.130561189333	1113.400153546739	1425.566267300469	291.579885258727	1197.204623863841	1366.330757663434	466.043990406801	1088.703820025871	1437.821632652862	626.588937767682	1075.779133864428	1489.708950571820	444.817633970190	1150.771985743776	937.734910215748	601.527910619524	1156.889877803798	960.159993722638	327.009868901047	1220.122772382613	750.161548499197	572.792593380010	1154.869115807692	631.596920900063	635.550444888135	1244.200968902147	589.854249360317	559.911108353667	1260.515249666124	501.024631470030	570.879128752226	1162.205958577136	730.199809819981	346.377147367777	1048.797263775834	633.836278414087	278.322672491910	1112.058991477052	540.141480067270	339.332325934534	1097.830502539969	469.972864750298	343.959090703275	1058.680366923163	405.241963378390	333.722477616865	948.245699105426	309.909264092132	281.197054609676	982.188256444075	187.594366788837	345.600748798241	1233.770245599642	410.118017841740	581.325695436100	1164.011096240872	306.401152709815	646.509026340771	1213.452637728389	210.379435236557	590.224877671159	1090.102691702462	42.574045739333	566.641504694668	1260.034496671105	97.650584382393	601.177866733158	1173.578596684900	37.171817970711	641.335713667299	1381.066449223347	48.066778988221	628.882743395154	839.179425051105	41.430632625146	387.714170489267	909.582815626210	35.797737002299	304.468205942524	995.479723880593	95.572959108994	328.780087403603	1121.844313928519	41.493984327872	293.897020828090	1174.541092641144	1089.513556266006	150.276344512816	1418.338921449915	997.317088561873	170.297424369067	984.218882690270	1109.370812863299	744.646089757954	1029.100540298581	850.463821191733	743.376326426783	
